<svg width="40" height="42" viewBox="0 0 40 42" fill="none" xmlns="http://www.w3.org/2000/svg">
<g clip-path="url(#clip0_2729_41)">
<path d="M0.598585 1.65926L7.38524 3.74865L11.2868 13.4797C11.2021 13.5699 11.1333 13.6759 11.0909 13.8032L9.18514 19.6577C9.12161 19.8487 9.1322 20.0555 9.20631 20.2411L14.516 33.2812C14.3148 33.9176 14.209 34.5911 14.209 35.2858C14.209 38.9873 17.2158 41.9994 20.9109 41.9994C24.606 41.9994 27.6129 38.9873 27.6129 35.2858C27.6129 34.6918 27.5335 34.1191 27.3905 33.5729L39.4922 28.4024C39.921 28.2168 40.1221 27.7184 39.9369 27.2888C39.7516 26.8593 39.254 26.6577 38.8252 26.8434L26.75 32.0032C26.5012 31.563 26.21 31.1547 25.8765 30.7835L37.237 26.0744C37.3852 26.0108 37.5017 25.8941 37.5652 25.7456C37.6288 25.5971 37.6288 25.4274 37.5652 25.279L31.6891 11.0509C31.5621 10.7433 31.2074 10.5949 30.9003 10.7221L29.7039 11.2206L25.5324 1.16608C25.4689 1.01759 25.3524 0.900924 25.2042 0.837288C25.056 0.773652 24.8919 0.773652 24.7383 0.837288L13.9443 5.31305C13.796 5.37668 13.6796 5.49335 13.6161 5.64183C13.5525 5.79032 13.5525 5.96002 13.6161 6.1085L17.7717 16.163L16.3794 16.7411C16.0724 16.8683 15.9242 17.2237 16.0512 17.5312L20.6145 28.5827C20.1433 28.604 19.6881 28.6729 19.2487 28.7843L8.80928 2.74108C8.71399 2.50244 8.51812 2.32214 8.26931 2.24789L1.0962 0.0365303C0.651523 -0.101348 0.175081 0.153197 0.0374416 0.598652C-0.100197 1.04941 0.153905 1.52138 0.598585 1.65926ZM14.966 6.20396L17.957 4.96305L19.111 7.75774L22.8114 6.22517L21.6573 3.43047L24.6483 2.18956L28.5605 11.6608L18.8781 15.6752L14.966 6.20396ZM20.9056 30.2744C21.0433 30.2744 21.1862 30.2797 21.3238 30.2956C21.832 30.338 22.3244 30.4547 22.7796 30.6403C22.8273 30.6615 22.8696 30.6774 22.9173 30.6987C23.3778 30.9002 23.796 31.1706 24.1719 31.4941C24.5636 31.8335 24.9077 32.2312 25.1777 32.6767C25.4689 33.154 25.6859 33.6896 25.8077 34.257C25.8765 34.5911 25.9136 34.9358 25.9136 35.2911C25.9136 38.054 23.669 40.3024 20.9109 40.3024C18.1528 40.3024 15.9083 38.054 15.9083 35.2911C15.9083 33.4774 16.8717 31.8865 18.317 31.0062C18.7934 30.7146 19.3281 30.5024 19.8945 30.3805C20.2227 30.3115 20.5668 30.2744 20.9109 30.2744H20.9056ZM17.4011 17.6267L21.6097 15.882L23.2402 19.8274L28.2111 17.7646L26.5806 13.8191L30.7892 12.0744L36.2047 25.1835L24.8707 29.882C24.029 29.2615 23.0337 28.8267 21.9538 28.657L17.3958 17.6267H17.4011ZM15.5324 31.282L13.5949 26.5252L15.94 25.0827L17.6764 29.41C16.8347 29.8767 16.1041 30.5184 15.5377 31.282H15.5324ZM12.949 24.9343L10.895 19.8858L12.2238 15.8077L15.2995 23.4812L12.949 24.929V24.9343Z" fill="white"/>
<path d="M20.906 38.1764C22.4995 38.1764 23.7859 36.8824 23.7859 35.2915C23.7859 35.2332 23.7859 35.1749 23.7806 35.1165C23.7435 34.5173 23.5265 33.9711 23.1824 33.5256C22.653 32.8415 21.8325 32.4014 20.9007 32.4014C20.8319 32.4014 20.7631 32.4014 20.6943 32.412C20.1014 32.4544 19.5561 32.6771 19.1114 33.0271C18.4444 33.5574 18.0156 34.3741 18.0156 35.2915C18.0156 36.8877 19.3073 38.1764 20.8955 38.1764H20.906Z" fill="white"/>
</g>
<defs>
<clipPath id="clip0_2729_41">
<rect width="40" height="42" fill="white"/>
</clipPath>
</defs>
</svg>
