<svg width="23" height="20" viewBox="0 0 23 20" fill="none" xmlns="http://www.w3.org/2000/svg">
<path d="M21.7422 1.23145H19.4422C18.7234 1.23145 18.1125 1.62077 17.9687 2.18978L16.9984 5.514H13.4406C13.0094 5.514 12.65 5.81348 12.65 6.17285C12.65 6.53223 13.0094 6.83171 13.4406 6.83171H16.6031L15.2375 11.5036C15.1656 11.7432 14.9141 11.8929 14.6266 11.8929H3.84531C3.55781 11.8929 3.30625 11.7132 3.23437 11.4736L2.08437 7.52051C2.0125 7.31087 2.12031 7.16113 2.19219 7.07129C2.26406 7.01139 2.40781 6.86165 2.69531 6.86165H4.45625C4.8875 6.86165 5.24687 6.56217 5.24687 6.2028C5.24687 5.84342 4.8875 5.54395 4.45625 5.54395H2.69531C2.0125 5.54395 1.36562 5.81348 0.934375 6.26269C0.503125 6.68197 0.359375 7.28092 0.503125 7.81999L1.61719 11.833C1.86875 12.6715 2.76719 13.2705 3.80937 13.2705H14.5906C15.6328 13.2705 16.5312 12.6715 16.7828 11.833L19.4781 2.51921H21.7062C22.1375 2.51921 22.4969 2.21973 22.4969 1.86035C22.4969 1.50098 22.1734 1.23145 21.7422 1.23145Z" fill="#161A19"/>
<path d="M13.6922 14.708H4.70781C3.41406 14.708 2.33594 15.6064 2.33594 16.6846C2.33594 17.7627 3.41406 18.6611 4.70781 18.6611C6.00156 18.6611 7.07969 17.7627 7.07969 16.6846C7.07969 16.4749 7.04375 16.2354 6.93594 16.0557H11.3922C11.3203 16.2653 11.2484 16.4749 11.2484 16.6846C11.2484 17.7627 12.3266 18.6611 13.6203 18.6611C14.9141 18.6611 15.9922 17.7627 15.9922 16.6846C15.9922 15.6064 14.9859 14.708 13.6922 14.708ZM5.4625 16.6846C5.4625 17.0439 5.10313 17.3135 4.70781 17.3135C4.3125 17.3135 3.95312 17.014 3.95312 16.6846C3.95312 16.3551 4.27656 16.0557 4.70781 16.0557C5.13906 16.0557 5.4625 16.3551 5.4625 16.6846ZM13.6922 17.3135C13.2609 17.3135 12.9375 17.014 12.9375 16.6846C12.9375 16.3551 13.2969 16.0557 13.6922 16.0557C14.0875 16.0557 14.4469 16.3551 14.4469 16.6846C14.4469 17.014 14.0875 17.3135 13.6922 17.3135Z" fill="#161A19"/>
<path d="M10.6724 4.87826L9.84583 5.47721L9.84583 1.82357C9.84583 1.46419 9.48646 1.16471 9.05521 1.16471C8.62396 1.16471 8.26458 1.46419 8.26458 1.82357L8.26458 5.47721L7.43802 4.87826C7.29427 4.75846 7.11458 4.72852 6.9349 4.72852C6.71927 4.72852 6.46771 4.81836 6.32396 4.9681C6.03646 5.26758 6.0724 5.68685 6.43177 5.92643L8.58802 7.42383C8.87552 7.63346 9.30677 7.63346 9.63021 7.42383L11.7865 5.92643C12.1458 5.68685 12.1818 5.26758 11.8943 4.9681C11.5349 4.69857 11.0318 4.63867 10.6724 4.87826Z" fill="#161A19"/>
</svg>
